# xmcd
# Track frame offsets:
# 150
# 13221
# 23157
# 36607
# 48188
# 60516
# 75474
# 87392
# 98664
# 111538
# 123936
# 141777
# 152861
# 166344
# 176538
# 190948
# 202113
#
# Disc length: 2782 seconds
# Revision: 0
# Processed by: cddbd v1.5.2PL0 Copyright (c) Steve Scherf et al.
# Submitted via: VisiTrax 2.11.3.279 - For more info visit www.synapsa.com
#
DISCID=e60adc11
DTITLE=Rocket To Staedom - A Rockin´ Tribute To Kris Kristofferson
DYEAR=2013
DGENRE=
TTITLE0=Secked In The Eighties
TTITLE1=Here Comes That Rainbow Again
TTITLE2=Michoacan
TTITLE3=El Coyote
TTITLE4=Stranger
TTITLE5=Please Don´t Tell Me How The Stories End
TTITLE6=It´s Never Gonna Be The same Again
TTITLE7=Late Again(Getting Over Youn)
TTITLE8=Under The Gun (with Kris Kristofferson)
TTITLE9=Best Of All Posible Worlds
TTITLE10=A Moment Of Forever
TTITLE11=From The Bottle To The Bottom
TTITLE12=Between Heaven And here (with Kelly Kristofferson)
TTITLE13=I Hate Your Ugly Face (with Kris Kristofferson)
TTITLE14=Loving Her Was Easier
TTITLE15=Prove It To You One More Time Again
TTITLE16=Please Don´t Tell Me How The Stories End (Kris Kristofferson BONUS tra
TTITLE16=ck)
EXTD=
EXTT0=
EXTT1=
EXTT2=
EXTT3=
EXTT4=
EXTT5=
EXTT6=
EXTT7=
EXTT8=
EXTT9=
EXTT10=
EXTT11=
EXTT12=
EXTT13=
EXTT14=
EXTT15=
EXTT16=
PLAYORDER=
